<svg width="20" height="22" viewBox="0 0 20 22" fill="none" xmlns="http://www.w3.org/2000/svg">
<path d="M1 12.766L1.747 12.83C1.72978 13.0221 1.63924 13.2002 1.49416 13.3272C1.34909 13.4543 1.16064 13.5206 0.967959 13.5124C0.775279 13.5041 0.593177 13.422 0.459478 13.283C0.325779 13.144 0.250759 12.9589 0.25 12.766H1ZM18.236 10.943L17.53 6.863L19.009 6.607L19.714 10.687L18.236 10.943ZM11.245 1.75H6.596V0.25H11.245V1.75ZM5.685 2.588L4.873 11.98L3.378 11.851L4.191 2.458L5.685 2.588ZM17.53 6.863C17.023 3.933 14.381 1.75 11.245 1.75V0.25C15.071 0.25 18.371 2.919 19.009 6.607L17.53 6.863ZM11.255 17.9L10.592 13.855L12.072 13.613L12.735 17.657L11.255 17.9ZM5.188 12.754L6.627 13.994L5.647 15.131L4.208 13.891L5.188 12.754ZM9.244 18.028L9.72 19.862L8.268 20.238L7.792 18.405L9.244 18.028ZM10.438 20.222L10.583 20.175L11.042 21.603L10.897 21.65L10.438 20.222ZM8.523 16.184C8.835 16.768 9.078 17.387 9.244 18.028L7.792 18.405C7.65421 17.8787 7.45553 17.3703 7.2 16.89L8.523 16.184ZM10.583 20.175C10.7255 20.1313 10.8547 20.0526 10.9588 19.946C11.063 19.8395 11.1387 19.7084 11.179 19.565L12.631 19.941C12.5281 20.3297 12.3284 20.686 12.0505 20.9766C11.7727 21.2673 11.4257 21.4828 11.042 21.603L10.583 20.175ZM9.72 19.862C9.73962 19.9342 9.77487 20.0011 9.82326 20.0582C9.87165 20.1152 9.93199 20.1609 10 20.192L9.349 21.543C9.08466 21.4173 8.85097 21.2354 8.66425 21.01C8.47753 20.7846 8.3423 20.5211 8.268 20.238L9.72 19.862ZM10 20.192C10.137 20.257 10.2935 20.2677 10.438 20.222L10.897 21.65C10.3863 21.8133 9.83242 21.775 9.349 21.543L10 20.192ZM12.154 12.016H17.334V13.516H12.154V12.016ZM2.719 1.594L1.747 12.83L0.253 12.701L1.223 1.465L2.719 1.594ZM1.75 1.487V12.766H0.25V1.487H1.75ZM1.223 1.465C1.21995 1.50134 1.22549 1.53792 1.23733 1.57241C1.24918 1.60691 1.26807 1.63856 1.2928 1.66536C1.31753 1.69216 1.34757 1.71353 1.381 1.7281C1.41443 1.74267 1.45053 1.75013 1.487 1.75V0.25C2.213 0.25 2.781 0.872 2.719 1.594L1.223 1.465ZM12.735 17.657C12.86 18.417 12.825 19.195 12.631 19.941L11.179 19.564C11.319 19.021 11.346 18.454 11.255 17.9L12.735 17.657ZM6.596 1.75C6.36685 1.75042 6.14619 1.83671 5.97754 1.99184C5.80889 2.14697 5.70451 2.35969 5.685 2.588L4.191 2.458C4.24303 1.85584 4.51888 1.29505 4.96411 0.886295C5.40933 0.477539 5.99159 0.250508 6.596 0.25V1.75ZM6.627 13.994C7.307 14.58 8.039 15.277 8.524 16.184L7.2 16.891C6.854 16.242 6.303 15.695 5.647 15.131L6.627 13.994ZM19.714 10.687C19.7742 11.034 19.7578 11.39 19.666 11.73C19.5741 12.07 19.4091 12.3858 19.1823 12.6553C18.9556 12.9249 18.6727 13.1415 18.3534 13.2902C18.0341 13.4389 17.6862 13.5159 17.334 13.516V12.016C17.4675 12.0159 17.5995 11.9867 17.7205 11.9303C17.8415 11.8738 17.9488 11.7916 18.0347 11.6894C18.1207 11.5872 18.1832 11.4674 18.218 11.3385C18.2527 11.2095 18.2589 11.0746 18.236 10.943L19.714 10.687ZM1.487 1.75C1.55675 1.75 1.62365 1.72229 1.67297 1.67297C1.72229 1.62365 1.75 1.55675 1.75 1.487H0.25C0.25 0.805 0.803 0.25 1.487 0.25V1.75ZM10.592 13.855C10.5547 13.6284 10.5672 13.3964 10.6285 13.1752C10.6899 12.9539 10.7986 12.7486 10.9472 12.5735C11.0958 12.3985 11.2807 12.2579 11.4891 12.1614C11.6975 12.065 11.9244 12.016 12.154 12.016V13.516C12.104 13.516 12.064 13.561 12.072 13.613L10.592 13.855ZM4.873 11.98C4.8608 12.1248 4.88208 12.2704 4.937 12.405C4.99193 12.5395 5.07794 12.6591 5.188 12.754L4.208 13.891C3.91814 13.6409 3.69177 13.3255 3.54748 12.9709C3.4032 12.6163 3.34511 12.2324 3.378 11.851L4.873 11.98Z" fill="black"/>
</svg>
