<svg width="20" height="22" viewBox="0 0 20 22" fill="none" xmlns="http://www.w3.org/2000/svg">
<path d="M1 9.234L1.747 9.17C1.72978 8.97791 1.63924 8.79984 1.49416 8.67277C1.34909 8.54569 1.16064 8.47939 0.967959 8.48763C0.775279 8.49587 0.593177 8.57801 0.459478 8.717C0.325779 8.85599 0.250759 9.04114 0.25 9.234H1ZM18.236 11.057L17.53 15.137L19.009 15.393L19.714 11.313L18.236 11.057ZM11.245 20.25H6.596V21.75H11.245V20.25ZM5.685 19.413L4.873 10.02L3.378 10.149L4.191 19.542L5.685 19.413ZM17.53 15.137C17.023 18.067 14.381 20.25 11.245 20.25V21.75C15.071 21.75 18.371 19.081 19.009 15.393L17.53 15.137ZM11.255 4.1L10.592 8.145L12.072 8.387L12.735 4.343L11.255 4.1ZM5.188 9.246L6.627 8.006L5.647 6.87L4.21 8.11L5.188 9.246ZM9.244 3.972L9.72 2.138L8.268 1.762L7.792 3.595L9.244 3.972ZM10.438 1.778L10.583 1.825L11.042 0.396996L10.897 0.349996L10.438 1.778ZM8.523 5.816C8.83519 5.2319 9.0772 4.61294 9.244 3.972L7.792 3.595C7.65421 4.12128 7.45553 4.62972 7.2 5.11L8.523 5.816ZM10.583 1.825C10.7255 1.86865 10.8547 1.94738 10.9588 2.05396C11.063 2.16054 11.1387 2.29155 11.179 2.435L12.631 2.059C12.5281 1.6703 12.3284 1.314 12.0505 1.02337C11.7727 0.732737 11.4257 0.517241 11.042 0.396996L10.583 1.825ZM9.72 2.138C9.74024 2.06611 9.77572 1.99943 9.82404 1.94248C9.87235 1.88554 9.93237 1.83967 10 1.808L9.349 0.456996C8.817 0.712996 8.417 1.187 8.268 1.762L9.72 2.138ZM10 1.808C10.137 1.74302 10.2935 1.7323 10.438 1.778L10.897 0.349996C10.3863 0.186727 9.83242 0.225009 9.349 0.456996L10 1.808ZM12.154 9.984H17.334V8.484H12.154V9.984ZM2.719 20.406L1.747 9.17L0.253 9.299L1.223 20.535L2.719 20.406ZM1.75 20.513V9.234H0.25V20.513H1.75ZM1.223 20.535C1.21995 20.4987 1.22549 20.4621 1.23733 20.4276C1.24918 20.3931 1.26807 20.3614 1.2928 20.3346C1.31753 20.3078 1.34757 20.2865 1.381 20.2719C1.41443 20.2573 1.45053 20.2499 1.487 20.25V21.75C2.213 21.75 2.781 21.128 2.719 20.406L1.223 20.535ZM12.735 4.343C12.8607 3.58278 12.8253 2.80464 12.631 2.059L11.179 2.436C11.3208 2.97918 11.3467 3.54614 11.255 4.1L12.735 4.343ZM6.596 20.25C6.36701 20.2496 6.14648 20.1635 5.97785 20.0085C5.80923 19.8536 5.70475 19.6411 5.685 19.413L4.191 19.542C4.24303 20.1442 4.51888 20.7049 4.96411 21.1137C5.40933 21.5225 5.99159 21.7495 6.596 21.75V20.25ZM6.627 8.006C7.307 7.42 8.039 6.723 8.524 5.816L7.2 5.11C6.854 5.759 6.303 6.306 5.647 6.87L6.627 8.006ZM19.714 11.313C19.7742 10.966 19.7578 10.61 19.666 10.27C19.5741 9.92998 19.4091 9.61416 19.1823 9.34465C18.9556 9.07514 18.6727 8.85846 18.3534 8.70979C18.0341 8.56112 17.6862 8.48406 17.334 8.484V9.984C17.901 9.984 18.334 10.496 18.236 11.057L19.714 11.313ZM1.487 20.25C1.633 20.25 1.75 20.368 1.75 20.513H0.25C0.25 21.195 0.803 21.75 1.487 21.75V20.25ZM10.592 8.145C10.5547 8.37158 10.5672 8.60355 10.6285 8.82483C10.6899 9.04612 10.7986 9.25141 10.9472 9.42646C11.0958 9.60152 11.2807 9.74214 11.4891 9.83859C11.6975 9.93504 11.9244 9.984 12.154 9.984V8.484C12.1418 8.48405 12.1297 8.48241 12.1187 8.47727C12.1076 8.47213 12.0978 8.46462 12.09 8.45526C12.0821 8.4459 12.0765 8.43493 12.0734 8.42313C12.0703 8.41133 12.0698 8.399 12.072 8.387L10.592 8.145ZM4.873 10.02C4.8608 9.87519 4.88208 9.72956 4.937 9.59503C4.99193 9.46049 5.07794 9.34088 5.188 9.246L4.208 8.109C3.91814 8.35913 3.69177 8.67447 3.54748 9.0291C3.4032 9.38374 3.34511 9.76755 3.378 10.149L4.873 10.02Z" fill="black"/>
</svg>
